<mxfile host="drawio-plugin" modified="2022-03-13T21:10:44.848Z" agent="5.0 (Macintosh; Intel Mac OS X 12_1_0) AppleWebKit/537.36 (KHTML, like Gecko) Chrome/89.0.4389.114 Safari/537.36" etag="sFCE0qv_RIXsWvvH-dWX" version="15.5.4" type="embed"><diagram id="jJLA4sRrII3pqrYsbiLH" name="Page-1"><mxGraphModel dx="1292" dy="1120" grid="1" gridSize="10" guides="1" tooltips="1" connect="1" arrows="1" fold="1" page="1" pageScale="1" pageWidth="827" pageHeight="1169" math="0" shadow="0"><root><mxCell id="0"/><mxCell id="1" parent="0"/><mxCell id="18" value="Klient" style="shape=table;startSize=30;container=1;collapsible=1;childLayout=tableLayout;fixedRows=1;rowLines=0;fontStyle=1;align=center;resizeLast=1;rounded=1;sketch=0;shadow=0;fillColor=#FFE45E;strokeColor=#FF6392;fontColor=#5AA9E6;" parent="1" vertex="1"><mxGeometry x="600" y="655" width="180" height="180" as="geometry"/></mxCell><mxCell id="19" value="" style="shape=partialRectangle;collapsible=0;dropTarget=0;pointerEvents=0;fillColor=none;top=0;left=0;bottom=1;right=0;points=[[0,0.5],[1,0.5]];portConstraint=eastwest;strokeColor=#FF6392;fontColor=#5AA9E6;" parent="18" vertex="1"><mxGeometry y="30" width="180" height="30" as="geometry"/></mxCell><mxCell id="20" value="PK" style="shape=partialRectangle;connectable=0;fillColor=none;top=0;left=0;bottom=0;right=0;fontStyle=1;overflow=hidden;strokeColor=#FF6392;fontColor=#5AA9E6;" parent="19" vertex="1"><mxGeometry width="30" height="30" as="geometry"><mxRectangle width="30" height="30" as="alternateBounds"/></mxGeometry></mxCell><mxCell id="21" value="ID-klienta" style="shape=partialRectangle;connectable=0;fillColor=none;top=0;left=0;bottom=0;right=0;align=left;spacingLeft=6;fontStyle=5;overflow=hidden;strokeColor=#FF6392;fontColor=#5AA9E6;" parent="19" vertex="1"><mxGeometry x="30" width="150" height="30" as="geometry"><mxRectangle width="150" height="30" as="alternateBounds"/></mxGeometry></mxCell><mxCell id="25" value="" style="shape=partialRectangle;collapsible=0;dropTarget=0;pointerEvents=0;fillColor=none;top=0;left=0;bottom=0;right=0;points=[[0,0.5],[1,0.5]];portConstraint=eastwest;strokeColor=#FF6392;fontColor=#5AA9E6;" parent="18" vertex="1"><mxGeometry y="60" width="180" height="30" as="geometry"/></mxCell><mxCell id="26" value="" style="shape=partialRectangle;connectable=0;fillColor=none;top=0;left=0;bottom=0;right=0;editable=1;overflow=hidden;strokeColor=#FF6392;fontColor=#5AA9E6;" parent="25" vertex="1"><mxGeometry width="30" height="30" as="geometry"><mxRectangle width="30" height="30" as="alternateBounds"/></mxGeometry></mxCell><mxCell id="27" value="Jméno a příjmení" style="shape=partialRectangle;connectable=0;fillColor=none;top=0;left=0;bottom=0;right=0;align=left;spacingLeft=6;overflow=hidden;strokeColor=#FF6392;fontColor=#5AA9E6;" parent="25" vertex="1"><mxGeometry x="30" width="150" height="30" as="geometry"><mxRectangle width="150" height="30" as="alternateBounds"/></mxGeometry></mxCell><mxCell id="28" value="" style="shape=partialRectangle;collapsible=0;dropTarget=0;pointerEvents=0;fillColor=none;top=0;left=0;bottom=0;right=0;points=[[0,0.5],[1,0.5]];portConstraint=eastwest;strokeColor=#FF6392;fontColor=#5AA9E6;" parent="18" vertex="1"><mxGeometry y="90" width="180" height="30" as="geometry"/></mxCell><mxCell id="29" value="" style="shape=partialRectangle;connectable=0;fillColor=none;top=0;left=0;bottom=0;right=0;editable=1;overflow=hidden;strokeColor=#FF6392;fontColor=#5AA9E6;" parent="28" vertex="1"><mxGeometry width="30" height="30" as="geometry"><mxRectangle width="30" height="30" as="alternateBounds"/></mxGeometry></mxCell><mxCell id="30" value="Rodné číslo" style="shape=partialRectangle;connectable=0;fillColor=none;top=0;left=0;bottom=0;right=0;align=left;spacingLeft=6;overflow=hidden;strokeColor=#FF6392;fontColor=#5AA9E6;" parent="28" vertex="1"><mxGeometry x="30" width="150" height="30" as="geometry"><mxRectangle width="150" height="30" as="alternateBounds"/></mxGeometry></mxCell><mxCell id="200" style="shape=partialRectangle;collapsible=0;dropTarget=0;pointerEvents=0;fillColor=none;top=0;left=0;bottom=0;right=0;points=[[0,0.5],[1,0.5]];portConstraint=eastwest;strokeColor=#FF6392;fontColor=#5AA9E6;" parent="18" vertex="1"><mxGeometry y="120" width="180" height="30" as="geometry"/></mxCell><mxCell id="201" style="shape=partialRectangle;connectable=0;fillColor=none;top=0;left=0;bottom=0;right=0;editable=1;overflow=hidden;strokeColor=#FF6392;fontColor=#5AA9E6;" parent="200" vertex="1"><mxGeometry width="30" height="30" as="geometry"><mxRectangle width="30" height="30" as="alternateBounds"/></mxGeometry></mxCell><mxCell id="202" value="Telefonní číslo" style="shape=partialRectangle;connectable=0;fillColor=none;top=0;left=0;bottom=0;right=0;align=left;spacingLeft=6;overflow=hidden;strokeColor=#FF6392;fontColor=#5AA9E6;" parent="200" vertex="1"><mxGeometry x="30" width="150" height="30" as="geometry"><mxRectangle width="150" height="30" as="alternateBounds"/></mxGeometry></mxCell><mxCell id="203" style="shape=partialRectangle;collapsible=0;dropTarget=0;pointerEvents=0;fillColor=none;top=0;left=0;bottom=0;right=0;points=[[0,0.5],[1,0.5]];portConstraint=eastwest;strokeColor=#FF6392;fontColor=#5AA9E6;" parent="18" vertex="1"><mxGeometry y="150" width="180" height="30" as="geometry"/></mxCell><mxCell id="204" style="shape=partialRectangle;connectable=0;fillColor=none;top=0;left=0;bottom=0;right=0;editable=1;overflow=hidden;strokeColor=#FF6392;fontColor=#5AA9E6;" parent="203" vertex="1"><mxGeometry width="30" height="30" as="geometry"><mxRectangle width="30" height="30" as="alternateBounds"/></mxGeometry></mxCell><mxCell id="205" value="Email" style="shape=partialRectangle;connectable=0;fillColor=none;top=0;left=0;bottom=0;right=0;align=left;spacingLeft=6;overflow=hidden;strokeColor=#FF6392;fontColor=#5AA9E6;" parent="203" vertex="1"><mxGeometry x="30" width="150" height="30" as="geometry"><mxRectangle width="150" height="30" as="alternateBounds"/></mxGeometry></mxCell><object label="Bankovní Účet" id="46"><mxCell style="shape=table;startSize=30;container=1;collapsible=1;childLayout=tableLayout;fixedRows=1;rowLines=0;fontStyle=1;align=center;resizeLast=1;rounded=1;swimlaneFillColor=none;fillColor=#FFE45E;strokeColor=#FF6392;fontColor=#5AA9E6;" parent="1" vertex="1"><mxGeometry x="340" y="485.25" width="180" height="189.5" as="geometry"/></mxCell></object><mxCell id="47" value="" style="shape=partialRectangle;collapsible=0;dropTarget=0;pointerEvents=0;fillColor=none;top=0;left=0;bottom=1;right=0;points=[[0,0.5],[1,0.5]];portConstraint=eastwest;strokeColor=#FF6392;fontColor=#5AA9E6;" parent="46" vertex="1"><mxGeometry y="30" width="180" height="30" as="geometry"/></mxCell><mxCell id="48" value="PK" style="shape=partialRectangle;connectable=0;fillColor=none;top=0;left=0;bottom=0;right=0;fontStyle=1;overflow=hidden;strokeColor=#FF6392;fontColor=#5AA9E6;" parent="47" vertex="1"><mxGeometry width="30" height="30" as="geometry"><mxRectangle width="30" height="30" as="alternateBounds"/></mxGeometry></mxCell><mxCell id="49" value="číslo účtu" style="shape=partialRectangle;connectable=0;fillColor=none;top=0;left=0;bottom=0;right=0;align=left;spacingLeft=6;fontStyle=5;overflow=hidden;strokeColor=#FF6392;fontColor=#5AA9E6;" parent="47" vertex="1"><mxGeometry x="30" width="150" height="30" as="geometry"><mxRectangle width="150" height="30" as="alternateBounds"/></mxGeometry></mxCell><mxCell id="69" style="shape=partialRectangle;collapsible=0;dropTarget=0;pointerEvents=0;fillColor=none;top=0;left=0;bottom=0;right=0;points=[[0,0.5],[1,0.5]];portConstraint=eastwest;strokeColor=#FF6392;fontColor=#5AA9E6;" parent="46" vertex="1"><mxGeometry y="60" width="180" height="30" as="geometry"/></mxCell><mxCell id="70" value="FK" style="shape=partialRectangle;connectable=0;fillColor=none;top=0;left=0;bottom=0;right=0;editable=1;overflow=hidden;strokeColor=#FF6392;fontColor=#5AA9E6;" parent="69" vertex="1"><mxGeometry width="30" height="30" as="geometry"><mxRectangle width="30" height="30" as="alternateBounds"/></mxGeometry></mxCell><mxCell id="71" value="ID-klienta" style="shape=partialRectangle;connectable=0;fillColor=none;top=0;left=0;bottom=0;right=0;align=left;spacingLeft=6;overflow=hidden;strokeColor=#FF6392;fontColor=#5AA9E6;" parent="69" vertex="1"><mxGeometry x="30" width="150" height="30" as="geometry"><mxRectangle width="150" height="30" as="alternateBounds"/></mxGeometry></mxCell><mxCell id="50" value="" style="shape=partialRectangle;collapsible=0;dropTarget=0;pointerEvents=0;fillColor=none;top=0;left=0;bottom=0;right=0;points=[[0,0.5],[1,0.5]];portConstraint=eastwest;strokeColor=#FF6392;fontColor=#5AA9E6;" parent="46" vertex="1"><mxGeometry y="90" width="180" height="30" as="geometry"/></mxCell><mxCell id="51" value="" style="shape=partialRectangle;connectable=0;fillColor=none;top=0;left=0;bottom=0;right=0;editable=1;overflow=hidden;strokeColor=#FF6392;fontColor=#5AA9E6;" parent="50" vertex="1"><mxGeometry width="30" height="30" as="geometry"><mxRectangle width="30" height="30" as="alternateBounds"/></mxGeometry></mxCell><mxCell id="52" value="Typ účtu" style="shape=partialRectangle;connectable=0;fillColor=none;top=0;left=0;bottom=0;right=0;align=left;spacingLeft=6;overflow=hidden;strokeColor=#FF6392;fontColor=#5AA9E6;" parent="50" vertex="1"><mxGeometry x="30" width="150" height="30" as="geometry"><mxRectangle width="150" height="30" as="alternateBounds"/></mxGeometry></mxCell><mxCell id="301" style="shape=partialRectangle;collapsible=0;dropTarget=0;pointerEvents=0;fillColor=none;top=0;left=0;bottom=0;right=0;points=[[0,0.5],[1,0.5]];portConstraint=eastwest;strokeColor=#FF6392;fontColor=#5AA9E6;" parent="46" vertex="1"><mxGeometry y="120" width="180" height="30" as="geometry"/></mxCell><mxCell id="302" style="shape=partialRectangle;connectable=0;fillColor=none;top=0;left=0;bottom=0;right=0;editable=1;overflow=hidden;strokeColor=#FF6392;fontColor=#5AA9E6;" parent="301" vertex="1"><mxGeometry width="30" height="30" as="geometry"><mxRectangle width="30" height="30" as="alternateBounds"/></mxGeometry></mxCell><mxCell id="303" value="Zůstatek" style="shape=partialRectangle;connectable=0;fillColor=none;top=0;left=0;bottom=0;right=0;align=left;spacingLeft=6;overflow=hidden;strokeColor=#FF6392;fontColor=#5AA9E6;" parent="301" vertex="1"><mxGeometry x="30" width="150" height="30" as="geometry"><mxRectangle width="150" height="30" as="alternateBounds"/></mxGeometry></mxCell><mxCell id="304" style="shape=partialRectangle;collapsible=0;dropTarget=0;pointerEvents=0;fillColor=none;top=0;left=0;bottom=0;right=0;points=[[0,0.5],[1,0.5]];portConstraint=eastwest;strokeColor=#FF6392;fontColor=#5AA9E6;" parent="46" vertex="1"><mxGeometry y="150" width="180" height="30" as="geometry"/></mxCell><mxCell id="305" style="shape=partialRectangle;connectable=0;fillColor=none;top=0;left=0;bottom=0;right=0;editable=1;overflow=hidden;strokeColor=#FF6392;fontColor=#5AA9E6;" parent="304" vertex="1"><mxGeometry width="30" height="30" as="geometry"><mxRectangle width="30" height="30" as="alternateBounds"/></mxGeometry></mxCell><mxCell id="306" style="shape=partialRectangle;connectable=0;fillColor=none;top=0;left=0;bottom=0;right=0;align=left;spacingLeft=6;overflow=hidden;strokeColor=#FF6392;fontColor=#5AA9E6;" parent="304" vertex="1"><mxGeometry x="30" width="150" height="30" as="geometry"><mxRectangle width="150" height="30" as="alternateBounds"/></mxGeometry></mxCell><mxCell id="75" value="Pobočka" style="shape=table;startSize=30;container=1;collapsible=1;childLayout=tableLayout;fixedRows=1;rowLines=0;fontStyle=1;align=center;resizeLast=1;rounded=1;fillColor=#FFE45E;strokeColor=#FF6392;fontColor=#5AA9E6;" parent="1" vertex="1"><mxGeometry x="60" y="90" width="180" height="130" as="geometry"/></mxCell><mxCell id="76" value="" style="shape=partialRectangle;collapsible=0;dropTarget=0;pointerEvents=0;fillColor=none;top=0;left=0;bottom=1;right=0;points=[[0,0.5],[1,0.5]];portConstraint=eastwest;rounded=1;strokeColor=#FF6392;fontColor=#5AA9E6;" parent="75" vertex="1"><mxGeometry y="30" width="180" height="30" as="geometry"/></mxCell><mxCell id="77" value="PK" style="shape=partialRectangle;connectable=0;fillColor=none;top=0;left=0;bottom=0;right=0;fontStyle=1;overflow=hidden;rounded=1;strokeColor=#FF6392;fontColor=#5AA9E6;" parent="76" vertex="1"><mxGeometry width="30" height="30" as="geometry"><mxRectangle width="30" height="30" as="alternateBounds"/></mxGeometry></mxCell><mxCell id="78" value="ID-pobočky" style="shape=partialRectangle;connectable=0;fillColor=none;top=0;left=0;bottom=0;right=0;align=left;spacingLeft=6;fontStyle=5;overflow=hidden;rounded=1;strokeColor=#FF6392;fontColor=#5AA9E6;" parent="76" vertex="1"><mxGeometry x="30" width="150" height="30" as="geometry"><mxRectangle width="150" height="30" as="alternateBounds"/></mxGeometry></mxCell><mxCell id="79" value="" style="shape=partialRectangle;collapsible=0;dropTarget=0;pointerEvents=0;fillColor=none;top=0;left=0;bottom=0;right=0;points=[[0,0.5],[1,0.5]];portConstraint=eastwest;rounded=1;strokeColor=#FF6392;fontColor=#5AA9E6;" parent="75" vertex="1"><mxGeometry y="60" width="180" height="30" as="geometry"/></mxCell><mxCell id="80" value="" style="shape=partialRectangle;connectable=0;fillColor=none;top=0;left=0;bottom=0;right=0;editable=1;overflow=hidden;rounded=1;strokeColor=#FF6392;fontColor=#5AA9E6;" parent="79" vertex="1"><mxGeometry width="30" height="30" as="geometry"><mxRectangle width="30" height="30" as="alternateBounds"/></mxGeometry></mxCell><mxCell id="81" value="Adresa" style="shape=partialRectangle;connectable=0;fillColor=none;top=0;left=0;bottom=0;right=0;align=left;spacingLeft=6;overflow=hidden;rounded=1;strokeColor=#FF6392;fontColor=#5AA9E6;" parent="79" vertex="1"><mxGeometry x="30" width="150" height="30" as="geometry"><mxRectangle width="150" height="30" as="alternateBounds"/></mxGeometry></mxCell><mxCell id="82" value="" style="shape=partialRectangle;collapsible=0;dropTarget=0;pointerEvents=0;fillColor=none;top=0;left=0;bottom=0;right=0;points=[[0,0.5],[1,0.5]];portConstraint=eastwest;rounded=1;strokeColor=#FF6392;fontColor=#5AA9E6;" parent="75" vertex="1"><mxGeometry y="90" width="180" height="30" as="geometry"/></mxCell><mxCell id="83" value="" style="shape=partialRectangle;connectable=0;fillColor=none;top=0;left=0;bottom=0;right=0;editable=1;overflow=hidden;rounded=1;strokeColor=#FF6392;fontColor=#5AA9E6;" parent="82" vertex="1"><mxGeometry width="30" height="30" as="geometry"><mxRectangle width="30" height="30" as="alternateBounds"/></mxGeometry></mxCell><mxCell id="84" value="Otevírací doba" style="shape=partialRectangle;connectable=0;fillColor=none;top=0;left=0;bottom=0;right=0;align=left;spacingLeft=6;overflow=hidden;rounded=1;strokeColor=#FF6392;fontColor=#5AA9E6;" parent="82" vertex="1"><mxGeometry x="30" width="150" height="30" as="geometry"><mxRectangle width="150" height="30" as="alternateBounds"/></mxGeometry></mxCell><mxCell id="366" style="edgeStyle=orthogonalEdgeStyle;rounded=1;sketch=0;orthogonalLoop=1;jettySize=auto;html=1;entryX=0.5;entryY=0;entryDx=0;entryDy=0;fontSize=13;fontColor=#5AA9E6;startArrow=ERzeroToOne;startFill=0;endArrow=none;endFill=0;strokeColor=#FF6392;fillColor=#FFE45E;" parent="1" source="88" target="396" edge="1"><mxGeometry relative="1" as="geometry"><mxPoint x="239" y="370" as="targetPoint"/></mxGeometry></mxCell><mxCell id="88" value="Zaměstnanec" style="shape=table;startSize=30;container=1;collapsible=1;childLayout=tableLayout;fixedRows=1;rowLines=0;fontStyle=1;align=center;resizeLast=1;rounded=1;fillColor=#FFE45E;strokeColor=#FF6392;fontColor=#5AA9E6;" parent="1" vertex="1"><mxGeometry x="360" y="60" width="180" height="190" as="geometry"/></mxCell><mxCell id="89" value="" style="shape=partialRectangle;collapsible=0;dropTarget=0;pointerEvents=0;fillColor=none;top=0;left=0;bottom=1;right=0;points=[[0,0.5],[1,0.5]];portConstraint=eastwest;rounded=1;strokeColor=#FF6392;fontColor=#5AA9E6;" parent="88" vertex="1"><mxGeometry y="30" width="180" height="30" as="geometry"/></mxCell><mxCell id="90" value="PK" style="shape=partialRectangle;connectable=0;fillColor=none;top=0;left=0;bottom=0;right=0;fontStyle=1;overflow=hidden;rounded=1;strokeColor=#FF6392;fontColor=#5AA9E6;" parent="89" vertex="1"><mxGeometry width="30" height="30" as="geometry"><mxRectangle width="30" height="30" as="alternateBounds"/></mxGeometry></mxCell><mxCell id="91" value="ID-zaměstnance" style="shape=partialRectangle;connectable=0;fillColor=none;top=0;left=0;bottom=0;right=0;align=left;spacingLeft=6;fontStyle=5;overflow=hidden;rounded=1;strokeColor=#FF6392;fontColor=#5AA9E6;" parent="89" vertex="1"><mxGeometry x="30" width="150" height="30" as="geometry"><mxRectangle width="150" height="30" as="alternateBounds"/></mxGeometry></mxCell><mxCell id="92" value="" style="shape=partialRectangle;collapsible=0;dropTarget=0;pointerEvents=0;fillColor=none;top=0;left=0;bottom=0;right=0;points=[[0,0.5],[1,0.5]];portConstraint=eastwest;rounded=1;strokeColor=#FF6392;fontColor=#5AA9E6;" parent="88" vertex="1"><mxGeometry y="60" width="180" height="30" as="geometry"/></mxCell><mxCell id="93" value="" style="shape=partialRectangle;connectable=0;fillColor=none;top=0;left=0;bottom=0;right=0;editable=1;overflow=hidden;rounded=1;strokeColor=#FF6392;fontColor=#5AA9E6;" parent="92" vertex="1"><mxGeometry width="30" height="30" as="geometry"><mxRectangle width="30" height="30" as="alternateBounds"/></mxGeometry></mxCell><mxCell id="94" value="Jméno a příjmení" style="shape=partialRectangle;connectable=0;fillColor=none;top=0;left=0;bottom=0;right=0;align=left;spacingLeft=6;overflow=hidden;rounded=1;strokeColor=#FF6392;fontColor=#5AA9E6;" parent="92" vertex="1"><mxGeometry x="30" width="150" height="30" as="geometry"><mxRectangle width="150" height="30" as="alternateBounds"/></mxGeometry></mxCell><mxCell id="95" value="" style="shape=partialRectangle;collapsible=0;dropTarget=0;pointerEvents=0;fillColor=none;top=0;left=0;bottom=0;right=0;points=[[0,0.5],[1,0.5]];portConstraint=eastwest;rounded=1;strokeColor=#FF6392;fontColor=#5AA9E6;" parent="88" vertex="1"><mxGeometry y="90" width="180" height="30" as="geometry"/></mxCell><mxCell id="96" value="" style="shape=partialRectangle;connectable=0;fillColor=none;top=0;left=0;bottom=0;right=0;editable=1;overflow=hidden;rounded=1;strokeColor=#FF6392;fontColor=#5AA9E6;" parent="95" vertex="1"><mxGeometry width="30" height="30" as="geometry"><mxRectangle width="30" height="30" as="alternateBounds"/></mxGeometry></mxCell><mxCell id="97" value="Rodné číslo" style="shape=partialRectangle;connectable=0;fillColor=none;top=0;left=0;bottom=0;right=0;align=left;spacingLeft=6;overflow=hidden;rounded=1;strokeColor=#FF6392;fontColor=#5AA9E6;" parent="95" vertex="1"><mxGeometry x="30" width="150" height="30" as="geometry"><mxRectangle width="150" height="30" as="alternateBounds"/></mxGeometry></mxCell><mxCell id="107" style="shape=partialRectangle;collapsible=0;dropTarget=0;pointerEvents=0;fillColor=none;top=0;left=0;bottom=0;right=0;points=[[0,0.5],[1,0.5]];portConstraint=eastwest;rounded=1;strokeColor=#FF6392;fontColor=#5AA9E6;" parent="88" vertex="1"><mxGeometry y="120" width="180" height="30" as="geometry"/></mxCell><mxCell id="108" style="shape=partialRectangle;connectable=0;fillColor=none;top=0;left=0;bottom=0;right=0;editable=1;overflow=hidden;rounded=1;strokeColor=#FF6392;fontColor=#5AA9E6;" parent="107" vertex="1"><mxGeometry width="30" height="30" as="geometry"><mxRectangle width="30" height="30" as="alternateBounds"/></mxGeometry></mxCell><mxCell id="109" value="Telefonní číslo" style="shape=partialRectangle;connectable=0;fillColor=none;top=0;left=0;bottom=0;right=0;align=left;spacingLeft=6;overflow=hidden;rounded=1;strokeColor=#FF6392;fontColor=#5AA9E6;" parent="107" vertex="1"><mxGeometry x="30" width="150" height="30" as="geometry"><mxRectangle width="150" height="30" as="alternateBounds"/></mxGeometry></mxCell><mxCell id="206" style="shape=partialRectangle;collapsible=0;dropTarget=0;pointerEvents=0;fillColor=none;top=0;left=0;bottom=0;right=0;points=[[0,0.5],[1,0.5]];portConstraint=eastwest;rounded=1;strokeColor=#FF6392;fontColor=#5AA9E6;" parent="88" vertex="1"><mxGeometry y="150" width="180" height="30" as="geometry"/></mxCell><mxCell id="207" style="shape=partialRectangle;connectable=0;fillColor=none;top=0;left=0;bottom=0;right=0;editable=1;overflow=hidden;rounded=1;strokeColor=#FF6392;fontColor=#5AA9E6;" parent="206" vertex="1"><mxGeometry width="30" height="30" as="geometry"><mxRectangle width="30" height="30" as="alternateBounds"/></mxGeometry></mxCell><mxCell id="208" value="Email" style="shape=partialRectangle;connectable=0;fillColor=none;top=0;left=0;bottom=0;right=0;align=left;spacingLeft=6;overflow=hidden;rounded=1;strokeColor=#FF6392;fontColor=#5AA9E6;" parent="206" vertex="1"><mxGeometry x="30" width="150" height="30" as="geometry"><mxRectangle width="150" height="30" as="alternateBounds"/></mxGeometry></mxCell><mxCell id="103" style="edgeStyle=orthogonalEdgeStyle;rounded=0;orthogonalLoop=1;jettySize=auto;html=1;startArrow=ERone;startFill=0;endArrow=ERoneToMany;endFill=0;strokeColor=#FF6392;fontColor=#5AA9E6;" parent="1" source="75" target="88" edge="1"><mxGeometry relative="1" as="geometry"/></mxCell><mxCell id="220" value="&lt;span style=&quot;font-size: 13px;&quot;&gt;pracuje na&lt;/span&gt;" style="edgeLabel;html=1;align=center;verticalAlign=middle;resizable=0;points=[];fontSize=13;fontColor=#5AA9E6;" parent="103" vertex="1" connectable="0"><mxGeometry x="0.0211" y="1" relative="1" as="geometry"><mxPoint x="-1" y="-1" as="offset"/></mxGeometry></mxCell><mxCell id="110" style="edgeStyle=orthogonalEdgeStyle;rounded=0;orthogonalLoop=1;jettySize=auto;html=1;startArrow=ERone;startFill=0;endArrow=ERmany;endFill=0;strokeColor=#FF6392;fontColor=#5AA9E6;exitX=0;exitY=0.5;exitDx=0;exitDy=0;entryX=1;entryY=0.5;entryDx=0;entryDy=0;" parent="1" target="47" edge="1"><mxGeometry relative="1" as="geometry"><mxPoint x="510" y="375" as="targetPoint"/></mxGeometry></mxCell><mxCell id="221" value="Vlastní" style="edgeLabel;html=1;align=center;verticalAlign=middle;resizable=0;points=[];fontSize=13;fontColor=#5AA9E6;" parent="110" vertex="1" connectable="0"><mxGeometry x="-0.3905" y="3" relative="1" as="geometry"><mxPoint x="-12" y="-6" as="offset"/></mxGeometry></mxCell><mxCell id="317" style="edgeStyle=orthogonalEdgeStyle;rounded=1;sketch=0;orthogonalLoop=1;jettySize=auto;html=1;fontSize=13;fontColor=#5AA9E6;startArrow=none;startFill=0;endArrow=none;endFill=0;strokeColor=#FF6392;fillColor=#FFE45E;elbow=vertical;" parent="1" source="158" edge="1"><mxGeometry relative="1" as="geometry"><mxPoint x="470" y="760" as="targetPoint"/></mxGeometry></mxCell><mxCell id="158" value="Právo" style="shape=table;startSize=30;container=1;collapsible=1;childLayout=tableLayout;fixedRows=1;rowLines=0;fontStyle=1;align=center;resizeLast=1;rounded=0;fillColor=#FFE45E;strokeColor=#FF6392;fontColor=#5AA9E6;" parent="1" vertex="1"><mxGeometry x="409" y="810" width="120" height="60" as="geometry"/></mxCell><mxCell id="162" value="" style="shape=partialRectangle;collapsible=0;dropTarget=0;pointerEvents=0;fillColor=none;top=0;left=0;bottom=0;right=0;points=[[0,0.5],[1,0.5]];portConstraint=eastwest;rounded=1;strokeColor=#FF6392;fontColor=#5AA9E6;" parent="158" vertex="1"><mxGeometry y="30" width="120" height="30" as="geometry"/></mxCell><mxCell id="163" value="" style="shape=partialRectangle;connectable=0;fillColor=none;top=0;left=0;bottom=0;right=0;editable=1;overflow=hidden;rounded=1;strokeColor=#FF6392;fontColor=#5AA9E6;" parent="162" vertex="1"><mxGeometry width="30" height="30" as="geometry"><mxRectangle width="30" height="30" as="alternateBounds"/></mxGeometry></mxCell><mxCell id="164" value="Typ" style="shape=partialRectangle;connectable=0;fillColor=none;top=0;left=0;bottom=0;right=0;align=left;spacingLeft=6;overflow=hidden;rounded=1;strokeColor=#FF6392;fontColor=#5AA9E6;" parent="162" vertex="1"><mxGeometry x="30" width="90" height="30" as="geometry"><mxRectangle width="90" height="30" as="alternateBounds"/></mxGeometry></mxCell><mxCell id="185" value="" style="edgeStyle=orthogonalEdgeStyle;curved=0;rounded=1;sketch=0;orthogonalLoop=1;jettySize=auto;html=1;fontColor=#5AA9E6;strokeColor=#FF6392;fillColor=#FFE45E;startArrow=ERone;startFill=0;endArrow=ERzeroToMany;endFill=0;" parent="1" source="172" target="46" edge="1"><mxGeometry relative="1" as="geometry"><Array as="points"><mxPoint x="360" y="835"/></Array></mxGeometry></mxCell><mxCell id="216" value="je" style="edgeLabel;html=1;align=center;verticalAlign=middle;resizable=0;points=[];fontColor=#5AA9E6;" parent="185" vertex="1" connectable="0"><mxGeometry x="0.6299" y="-2" relative="1" as="geometry"><mxPoint x="-2" y="16" as="offset"/></mxGeometry></mxCell><mxCell id="172" value="Typ účtu" style="shape=table;startSize=30;container=1;collapsible=1;childLayout=tableLayout;fixedRows=1;rowLines=0;fontStyle=1;align=center;resizeLast=1;rounded=1;sketch=0;fontColor=#5AA9E6;strokeColor=#FF6392;fillColor=#FFE45E;" parent="1" vertex="1"><mxGeometry x="40" y="770" width="180" height="130" as="geometry"/></mxCell><mxCell id="173" value="" style="shape=partialRectangle;collapsible=0;dropTarget=0;pointerEvents=0;fillColor=none;top=0;left=0;bottom=1;right=0;points=[[0,0.5],[1,0.5]];portConstraint=eastwest;rounded=0;sketch=0;fontColor=#5AA9E6;strokeColor=#FF6392;" parent="172" vertex="1"><mxGeometry y="30" width="180" height="30" as="geometry"/></mxCell><mxCell id="174" value="PK" style="shape=partialRectangle;connectable=0;fillColor=none;top=0;left=0;bottom=0;right=0;fontStyle=1;overflow=hidden;rounded=0;sketch=0;fontColor=#5AA9E6;strokeColor=#FF6392;" parent="173" vertex="1"><mxGeometry width="30" height="30" as="geometry"><mxRectangle width="30" height="30" as="alternateBounds"/></mxGeometry></mxCell><mxCell id="175" value="ID-typu" style="shape=partialRectangle;connectable=0;fillColor=none;top=0;left=0;bottom=0;right=0;align=left;spacingLeft=6;fontStyle=5;overflow=hidden;rounded=0;sketch=0;fontColor=#5AA9E6;strokeColor=#FF6392;" parent="173" vertex="1"><mxGeometry x="30" width="150" height="30" as="geometry"><mxRectangle width="150" height="30" as="alternateBounds"/></mxGeometry></mxCell><mxCell id="176" value="" style="shape=partialRectangle;collapsible=0;dropTarget=0;pointerEvents=0;fillColor=none;top=0;left=0;bottom=0;right=0;points=[[0,0.5],[1,0.5]];portConstraint=eastwest;rounded=0;sketch=0;fontColor=#5AA9E6;strokeColor=#FF6392;" parent="172" vertex="1"><mxGeometry y="60" width="180" height="30" as="geometry"/></mxCell><mxCell id="177" value="" style="shape=partialRectangle;connectable=0;fillColor=none;top=0;left=0;bottom=0;right=0;editable=1;overflow=hidden;rounded=0;sketch=0;fontColor=#5AA9E6;strokeColor=#FF6392;" parent="176" vertex="1"><mxGeometry width="30" height="30" as="geometry"><mxRectangle width="30" height="30" as="alternateBounds"/></mxGeometry></mxCell><mxCell id="178" value="Název" style="shape=partialRectangle;connectable=0;fillColor=none;top=0;left=0;bottom=0;right=0;align=left;spacingLeft=6;overflow=hidden;rounded=0;sketch=0;fontColor=#5AA9E6;strokeColor=#FF6392;" parent="176" vertex="1"><mxGeometry x="30" width="150" height="30" as="geometry"><mxRectangle width="150" height="30" as="alternateBounds"/></mxGeometry></mxCell><mxCell id="179" value="" style="shape=partialRectangle;collapsible=0;dropTarget=0;pointerEvents=0;fillColor=none;top=0;left=0;bottom=0;right=0;points=[[0,0.5],[1,0.5]];portConstraint=eastwest;rounded=0;sketch=0;fontColor=#5AA9E6;strokeColor=#FF6392;" parent="172" vertex="1"><mxGeometry y="90" width="180" height="30" as="geometry"/></mxCell><mxCell id="180" value="FK" style="shape=partialRectangle;connectable=0;fillColor=none;top=0;left=0;bottom=0;right=0;editable=1;overflow=hidden;rounded=0;sketch=0;fontColor=#5AA9E6;strokeColor=#FF6392;" parent="179" vertex="1"><mxGeometry width="30" height="30" as="geometry"><mxRectangle width="30" height="30" as="alternateBounds"/></mxGeometry></mxCell><mxCell id="181" value="ID-služeb" style="shape=partialRectangle;connectable=0;fillColor=none;top=0;left=0;bottom=0;right=0;align=left;spacingLeft=6;overflow=hidden;rounded=0;sketch=0;fontColor=#5AA9E6;strokeColor=#FF6392;" parent="179" vertex="1"><mxGeometry x="30" width="150" height="30" as="geometry"><mxRectangle width="150" height="30" as="alternateBounds"/></mxGeometry></mxCell><mxCell id="186" value="Služba" style="shape=table;startSize=30;container=1;collapsible=1;childLayout=tableLayout;fixedRows=1;rowLines=0;fontStyle=1;align=center;resizeLast=1;rounded=1;sketch=0;fontColor=#5AA9E6;strokeColor=#FF6392;fillColor=#FFE45E;" parent="1" vertex="1"><mxGeometry x="40" y="970" width="180" height="130" as="geometry"/></mxCell><mxCell id="187" value="" style="shape=partialRectangle;collapsible=0;dropTarget=0;pointerEvents=0;fillColor=none;top=0;left=0;bottom=1;right=0;points=[[0,0.5],[1,0.5]];portConstraint=eastwest;rounded=0;sketch=0;fontColor=#5AA9E6;strokeColor=#FF6392;" parent="186" vertex="1"><mxGeometry y="30" width="180" height="30" as="geometry"/></mxCell><mxCell id="188" value="PK" style="shape=partialRectangle;connectable=0;fillColor=none;top=0;left=0;bottom=0;right=0;fontStyle=1;overflow=hidden;rounded=0;sketch=0;fontColor=#5AA9E6;strokeColor=#FF6392;" parent="187" vertex="1"><mxGeometry width="30" height="30" as="geometry"><mxRectangle width="30" height="30" as="alternateBounds"/></mxGeometry></mxCell><mxCell id="189" value="ID-služby" style="shape=partialRectangle;connectable=0;fillColor=none;top=0;left=0;bottom=0;right=0;align=left;spacingLeft=6;fontStyle=5;overflow=hidden;rounded=0;sketch=0;fontColor=#5AA9E6;strokeColor=#FF6392;" parent="187" vertex="1"><mxGeometry x="30" width="150" height="30" as="geometry"><mxRectangle width="150" height="30" as="alternateBounds"/></mxGeometry></mxCell><mxCell id="190" value="" style="shape=partialRectangle;collapsible=0;dropTarget=0;pointerEvents=0;fillColor=none;top=0;left=0;bottom=0;right=0;points=[[0,0.5],[1,0.5]];portConstraint=eastwest;rounded=0;sketch=0;fontColor=#5AA9E6;strokeColor=#FF6392;" parent="186" vertex="1"><mxGeometry y="60" width="180" height="30" as="geometry"/></mxCell><mxCell id="191" value="" style="shape=partialRectangle;connectable=0;fillColor=none;top=0;left=0;bottom=0;right=0;editable=1;overflow=hidden;rounded=0;sketch=0;fontColor=#5AA9E6;strokeColor=#FF6392;" parent="190" vertex="1"><mxGeometry width="30" height="30" as="geometry"><mxRectangle width="30" height="30" as="alternateBounds"/></mxGeometry></mxCell><mxCell id="192" value="Název" style="shape=partialRectangle;connectable=0;fillColor=none;top=0;left=0;bottom=0;right=0;align=left;spacingLeft=6;overflow=hidden;rounded=0;sketch=0;fontColor=#5AA9E6;strokeColor=#FF6392;" parent="190" vertex="1"><mxGeometry x="30" width="150" height="30" as="geometry"><mxRectangle width="150" height="30" as="alternateBounds"/></mxGeometry></mxCell><mxCell id="193" value="" style="shape=partialRectangle;collapsible=0;dropTarget=0;pointerEvents=0;fillColor=none;top=0;left=0;bottom=0;right=0;points=[[0,0.5],[1,0.5]];portConstraint=eastwest;rounded=0;sketch=0;fontColor=#5AA9E6;strokeColor=#FF6392;" parent="186" vertex="1"><mxGeometry y="90" width="180" height="30" as="geometry"/></mxCell><mxCell id="194" value="" style="shape=partialRectangle;connectable=0;fillColor=none;top=0;left=0;bottom=0;right=0;editable=1;overflow=hidden;rounded=0;sketch=0;fontColor=#5AA9E6;strokeColor=#FF6392;" parent="193" vertex="1"><mxGeometry width="30" height="30" as="geometry"><mxRectangle width="30" height="30" as="alternateBounds"/></mxGeometry></mxCell><mxCell id="195" value="Popis" style="shape=partialRectangle;connectable=0;fillColor=none;top=0;left=0;bottom=0;right=0;align=left;spacingLeft=6;overflow=hidden;rounded=0;sketch=0;fontColor=#5AA9E6;strokeColor=#FF6392;" parent="193" vertex="1"><mxGeometry x="30" width="150" height="30" as="geometry"><mxRectangle width="150" height="30" as="alternateBounds"/></mxGeometry></mxCell><mxCell id="241" style="edgeStyle=orthogonalEdgeStyle;rounded=1;sketch=0;orthogonalLoop=1;jettySize=auto;html=1;fontColor=#5AA9E6;strokeColor=#FF6392;fillColor=#FFE45E;startArrow=ERzeroToMany;startFill=1;endArrow=ERzeroToMany;endFill=0;" parent="1" source="28" target="46" edge="1"><mxGeometry relative="1" as="geometry"/></mxCell><mxCell id="403" value="disponuje" style="edgeLabel;html=1;align=center;verticalAlign=middle;resizable=0;points=[];fontSize=13;fontColor=#5AA9E6;" parent="241" vertex="1" connectable="0"><mxGeometry x="-0.2729" relative="1" as="geometry"><mxPoint as="offset"/></mxGeometry></mxCell><mxCell id="276" style="edgeStyle=orthogonalEdgeStyle;curved=0;rounded=1;sketch=0;orthogonalLoop=1;jettySize=auto;html=1;fontColor=#5AA9E6;endArrow=ERzeroToMany;endFill=0;strokeColor=#FF6392;fillColor=#FFE45E;startArrow=ERone;startFill=0;entryX=0.75;entryY=1;entryDx=0;entryDy=0;" parent="1" source="25" target="46" edge="1"><mxGeometry relative="1" as="geometry"/></mxCell><mxCell id="402" value="vlastní" style="edgeLabel;html=1;align=center;verticalAlign=middle;resizable=0;points=[];fontSize=13;fontColor=#5AA9E6;" parent="276" vertex="1" connectable="0"><mxGeometry x="-0.2214" y="1" relative="1" as="geometry"><mxPoint as="offset"/></mxGeometry></mxCell><mxCell id="290" style="edgeStyle=orthogonalEdgeStyle;curved=0;rounded=1;sketch=0;orthogonalLoop=1;jettySize=auto;html=1;fontSize=13;fontColor=#5AA9E6;startArrow=ERmany;startFill=0;endArrow=ERone;endFill=0;strokeColor=#FF6392;fillColor=#FFE45E;" parent="1" source="280" target="46" edge="1"><mxGeometry relative="1" as="geometry"/></mxCell><mxCell id="316" value="&amp;lt;&amp;lt; identify &amp;gt;&amp;gt;&lt;br&gt;je přiřazena" style="edgeLabel;html=1;align=center;verticalAlign=middle;resizable=0;points=[];fontSize=13;fontColor=#5AA9E6;" parent="290" vertex="1" connectable="0"><mxGeometry x="0.6871" y="1" relative="1" as="geometry"><mxPoint x="-41" y="1" as="offset"/></mxGeometry></mxCell><mxCell id="280" value="&lt;&lt; weak &gt;&gt;&#10;Platební karta" style="shape=table;startSize=30;container=1;collapsible=1;childLayout=tableLayout;fixedRows=1;rowLines=0;fontStyle=1;align=center;resizeLast=1;rounded=1;fillColor=#FFE45E;strokeColor=#FF6392;fontColor=#5AA9E6;" parent="1" vertex="1"><mxGeometry x="40" y="470" width="180" height="220" as="geometry"/></mxCell><mxCell id="281" value="" style="shape=partialRectangle;collapsible=0;dropTarget=0;pointerEvents=0;fillColor=none;top=0;left=0;bottom=1;right=0;points=[[0,0.5],[1,0.5]];portConstraint=eastwest;rounded=1;strokeColor=#FF6392;fontColor=#5AA9E6;" parent="280" vertex="1"><mxGeometry y="30" width="180" height="30" as="geometry"/></mxCell><mxCell id="282" value="D" style="shape=partialRectangle;connectable=0;fillColor=none;top=0;left=0;bottom=0;right=0;fontStyle=1;overflow=hidden;rounded=1;strokeColor=#FF6392;fontColor=#5AA9E6;" parent="281" vertex="1"><mxGeometry width="30" height="30" as="geometry"><mxRectangle width="30" height="30" as="alternateBounds"/></mxGeometry></mxCell><mxCell id="283" value="Číslo platební karty" style="shape=partialRectangle;connectable=0;fillColor=none;top=0;left=0;bottom=0;right=0;align=left;spacingLeft=6;fontStyle=5;overflow=hidden;rounded=1;strokeColor=#FF6392;fontColor=#5AA9E6;" parent="281" vertex="1"><mxGeometry x="30" width="150" height="30" as="geometry"><mxRectangle width="150" height="30" as="alternateBounds"/></mxGeometry></mxCell><mxCell id="284" value="" style="shape=partialRectangle;collapsible=0;dropTarget=0;pointerEvents=0;fillColor=none;top=0;left=0;bottom=0;right=0;points=[[0,0.5],[1,0.5]];portConstraint=eastwest;rounded=1;strokeColor=#FF6392;fontColor=#5AA9E6;" parent="280" vertex="1"><mxGeometry y="60" width="180" height="30" as="geometry"/></mxCell><mxCell id="285" value="" style="shape=partialRectangle;connectable=0;fillColor=none;top=0;left=0;bottom=0;right=0;editable=1;overflow=hidden;rounded=1;strokeColor=#FF6392;fontColor=#5AA9E6;" parent="284" vertex="1"><mxGeometry width="30" height="30" as="geometry"><mxRectangle width="30" height="30" as="alternateBounds"/></mxGeometry></mxCell><mxCell id="286" value="Rok expirace" style="shape=partialRectangle;connectable=0;fillColor=none;top=0;left=0;bottom=0;right=0;align=left;spacingLeft=6;overflow=hidden;rounded=1;strokeColor=#FF6392;fontColor=#5AA9E6;" parent="284" vertex="1"><mxGeometry x="30" width="150" height="30" as="geometry"><mxRectangle width="150" height="30" as="alternateBounds"/></mxGeometry></mxCell><mxCell id="298" style="shape=partialRectangle;collapsible=0;dropTarget=0;pointerEvents=0;fillColor=none;top=0;left=0;bottom=0;right=0;points=[[0,0.5],[1,0.5]];portConstraint=eastwest;rounded=1;strokeColor=#FF6392;fontColor=#5AA9E6;" parent="280" vertex="1"><mxGeometry y="90" width="180" height="30" as="geometry"/></mxCell><mxCell id="299" style="shape=partialRectangle;connectable=0;fillColor=none;top=0;left=0;bottom=0;right=0;editable=1;overflow=hidden;rounded=1;strokeColor=#FF6392;fontColor=#5AA9E6;" parent="298" vertex="1"><mxGeometry width="30" height="30" as="geometry"><mxRectangle width="30" height="30" as="alternateBounds"/></mxGeometry></mxCell><mxCell id="300" value="Měsíc expirace" style="shape=partialRectangle;connectable=0;fillColor=none;top=0;left=0;bottom=0;right=0;align=left;spacingLeft=6;overflow=hidden;rounded=1;strokeColor=#FF6392;fontColor=#5AA9E6;" parent="298" vertex="1"><mxGeometry x="30" width="150" height="30" as="geometry"><mxRectangle width="150" height="30" as="alternateBounds"/></mxGeometry></mxCell><mxCell id="292" style="shape=partialRectangle;collapsible=0;dropTarget=0;pointerEvents=0;fillColor=none;top=0;left=0;bottom=0;right=0;points=[[0,0.5],[1,0.5]];portConstraint=eastwest;rounded=1;strokeColor=#FF6392;fontColor=#5AA9E6;" parent="280" vertex="1"><mxGeometry y="120" width="180" height="30" as="geometry"/></mxCell><mxCell id="293" value="FK" style="shape=partialRectangle;connectable=0;fillColor=none;top=0;left=0;bottom=0;right=0;editable=1;overflow=hidden;rounded=1;strokeColor=#FF6392;fontColor=#5AA9E6;" parent="292" vertex="1"><mxGeometry width="30" height="30" as="geometry"><mxRectangle width="30" height="30" as="alternateBounds"/></mxGeometry></mxCell><mxCell id="294" value="ID-klienta" style="shape=partialRectangle;connectable=0;fillColor=none;top=0;left=0;bottom=0;right=0;align=left;spacingLeft=6;overflow=hidden;rounded=1;strokeColor=#FF6392;fontColor=#5AA9E6;" parent="292" vertex="1"><mxGeometry x="30" width="150" height="30" as="geometry"><mxRectangle width="150" height="30" as="alternateBounds"/></mxGeometry></mxCell><mxCell id="295" style="shape=partialRectangle;collapsible=0;dropTarget=0;pointerEvents=0;fillColor=none;top=0;left=0;bottom=0;right=0;points=[[0,0.5],[1,0.5]];portConstraint=eastwest;rounded=1;strokeColor=#FF6392;fontColor=#5AA9E6;" parent="280" vertex="1"><mxGeometry y="150" width="180" height="30" as="geometry"/></mxCell><mxCell id="296" style="shape=partialRectangle;connectable=0;fillColor=none;top=0;left=0;bottom=0;right=0;editable=1;overflow=hidden;rounded=1;strokeColor=#FF6392;fontColor=#5AA9E6;" parent="295" vertex="1"><mxGeometry width="30" height="30" as="geometry"><mxRectangle width="30" height="30" as="alternateBounds"/></mxGeometry></mxCell><mxCell id="297" value="cvc kod" style="shape=partialRectangle;connectable=0;fillColor=none;top=0;left=0;bottom=0;right=0;align=left;spacingLeft=6;overflow=hidden;rounded=1;strokeColor=#FF6392;fontColor=#5AA9E6;" parent="295" vertex="1"><mxGeometry x="30" width="150" height="30" as="geometry"><mxRectangle width="150" height="30" as="alternateBounds"/></mxGeometry></mxCell><mxCell id="310" style="shape=partialRectangle;collapsible=0;dropTarget=0;pointerEvents=0;fillColor=none;top=0;left=0;bottom=0;right=0;points=[[0,0.5],[1,0.5]];portConstraint=eastwest;rounded=1;strokeColor=#FF6392;fontColor=#5AA9E6;" parent="280" vertex="1"><mxGeometry y="180" width="180" height="30" as="geometry"/></mxCell><mxCell id="311" style="shape=partialRectangle;connectable=0;fillColor=none;top=0;left=0;bottom=0;right=0;editable=1;overflow=hidden;rounded=1;strokeColor=#FF6392;fontColor=#5AA9E6;" parent="310" vertex="1"><mxGeometry width="30" height="30" as="geometry"><mxRectangle width="30" height="30" as="alternateBounds"/></mxGeometry></mxCell><mxCell id="312" value="Typ karty" style="shape=partialRectangle;connectable=0;fillColor=none;top=0;left=0;bottom=0;right=0;align=left;spacingLeft=6;overflow=hidden;rounded=1;strokeColor=#FF6392;fontColor=#5AA9E6;" parent="310" vertex="1"><mxGeometry x="30" width="150" height="30" as="geometry"><mxRectangle width="150" height="30" as="alternateBounds"/></mxGeometry></mxCell><mxCell id="352" style="edgeStyle=orthogonalEdgeStyle;rounded=1;sketch=0;orthogonalLoop=1;jettySize=auto;html=1;fontSize=13;fontColor=#5AA9E6;startArrow=ERzeroToOne;startFill=0;endArrow=ERone;endFill=0;strokeColor=#FF6392;fillColor=#FFE45E;" parent="1" source="446" target="18" edge="1"><mxGeometry relative="1" as="geometry"><mxPoint x="690" y="905" as="sourcePoint"/></mxGeometry></mxCell><mxCell id="404" value="&amp;lt;&amp;lt; identify &amp;gt;&amp;gt;&lt;br&gt;je zřízeno" style="edgeLabel;html=1;align=center;verticalAlign=middle;resizable=0;points=[];fontSize=13;fontColor=#5AA9E6;" parent="352" vertex="1" connectable="0"><mxGeometry x="0.0743" relative="1" as="geometry"><mxPoint as="offset"/></mxGeometry></mxCell><mxCell id="364" style="edgeStyle=orthogonalEdgeStyle;rounded=1;sketch=0;orthogonalLoop=1;jettySize=auto;html=1;fontSize=13;fontColor=#5AA9E6;startArrow=none;startFill=0;endArrow=ERone;endFill=0;strokeColor=#FF6392;fillColor=#FFE45E;entryX=0.5;entryY=0;entryDx=0;entryDy=0;exitX=0;exitY=1;exitDx=0;exitDy=0;" parent="1" source="396" target="46" edge="1"><mxGeometry relative="1" as="geometry"><mxPoint x="444.7869342247427" y="414.198816844862" as="sourcePoint"/></mxGeometry></mxCell><mxCell id="365" style="edgeStyle=orthogonalEdgeStyle;rounded=1;sketch=0;orthogonalLoop=1;jettySize=auto;html=1;exitX=1;exitY=1;exitDx=0;exitDy=0;fontSize=13;fontColor=#5AA9E6;startArrow=none;startFill=0;endArrow=ERzeroToOne;endFill=0;strokeColor=#FF6392;fillColor=#FFE45E;entryX=0.75;entryY=0;entryDx=0;entryDy=0;" parent="1" source="396" target="46" edge="1"><mxGeometry relative="1" as="geometry"><mxPoint x="480" y="420" as="sourcePoint"/></mxGeometry></mxCell><mxCell id="378" value="Operace" style="shape=table;startSize=30;container=1;collapsible=1;childLayout=tableLayout;fixedRows=1;rowLines=0;fontStyle=1;align=center;resizeLast=1;rounded=0;fillColor=#FFE45E;strokeColor=#FF6392;fontColor=#5AA9E6;shadow=0;sketch=0;" parent="1" vertex="1"><mxGeometry x="200" y="330" width="140" height="90" as="geometry"/></mxCell><mxCell id="382" value="" style="shape=partialRectangle;collapsible=0;dropTarget=0;pointerEvents=0;fillColor=none;top=0;left=0;bottom=0;right=0;points=[[0,0.5],[1,0.5]];portConstraint=eastwest;rounded=1;strokeColor=#FF6392;fontColor=#5AA9E6;" parent="378" vertex="1"><mxGeometry y="30" width="140" height="30" as="geometry"/></mxCell><mxCell id="383" value="" style="shape=partialRectangle;connectable=0;fillColor=none;top=0;left=0;bottom=0;right=0;editable=1;overflow=hidden;rounded=1;strokeColor=#FF6392;fontColor=#5AA9E6;" parent="382" vertex="1"><mxGeometry width="30" height="30" as="geometry"><mxRectangle width="30" height="30" as="alternateBounds"/></mxGeometry></mxCell><mxCell id="384" value="Typ" style="shape=partialRectangle;connectable=0;fillColor=none;top=0;left=0;bottom=0;right=0;align=left;spacingLeft=6;overflow=hidden;rounded=1;strokeColor=#FF6392;fontColor=#5AA9E6;" parent="382" vertex="1"><mxGeometry x="30" width="110" height="30" as="geometry"><mxRectangle width="110" height="30" as="alternateBounds"/></mxGeometry></mxCell><mxCell id="385" value="" style="shape=partialRectangle;collapsible=0;dropTarget=0;pointerEvents=0;fillColor=none;top=0;left=0;bottom=0;right=0;points=[[0,0.5],[1,0.5]];portConstraint=eastwest;rounded=1;strokeColor=#FF6392;fontColor=#5AA9E6;" parent="378" vertex="1"><mxGeometry y="60" width="140" height="30" as="geometry"/></mxCell><mxCell id="386" value="" style="shape=partialRectangle;connectable=0;fillColor=none;top=0;left=0;bottom=0;right=0;editable=1;overflow=hidden;rounded=1;strokeColor=#FF6392;fontColor=#5AA9E6;" parent="385" vertex="1"><mxGeometry width="30" height="30" as="geometry"><mxRectangle width="30" height="30" as="alternateBounds"/></mxGeometry></mxCell><mxCell id="387" value="Datum a čas" style="shape=partialRectangle;connectable=0;fillColor=none;top=0;left=0;bottom=0;right=0;align=left;spacingLeft=6;overflow=hidden;rounded=1;strokeColor=#FF6392;fontColor=#5AA9E6;" parent="385" vertex="1"><mxGeometry x="30" width="110" height="30" as="geometry"><mxRectangle width="110" height="30" as="alternateBounds"/></mxGeometry></mxCell><mxCell id="396" value="&lt;span&gt;Vykonává&lt;/span&gt;" style="rhombus;whiteSpace=wrap;html=1;rounded=0;sketch=0;fontSize=13;fontColor=#5AA9E6;strokeColor=#FF6392;fillColor=#FFE45E;" parent="1" vertex="1"><mxGeometry x="390" y="350" width="120" height="50" as="geometry"/></mxCell><mxCell id="397" style="edgeStyle=orthogonalEdgeStyle;rounded=1;sketch=0;orthogonalLoop=1;jettySize=auto;html=1;entryX=0;entryY=0.5;entryDx=0;entryDy=0;fontSize=13;fontColor=#5AA9E6;startArrow=none;startFill=0;endArrow=none;endFill=0;strokeColor=#FF6392;fillColor=#FFE45E;" parent="1" source="378" target="396" edge="1"><mxGeometry relative="1" as="geometry"/></mxCell><mxCell id="406" value="" style="edgeStyle=orthogonalEdgeStyle;curved=0;rounded=1;sketch=0;orthogonalLoop=1;jettySize=auto;html=1;fontColor=#5AA9E6;strokeColor=#FF6392;fillColor=#FFE45E;startArrow=ERzeroToMany;startFill=1;endArrow=ERone;endFill=0;" parent="1" source="186" target="172" edge="1"><mxGeometry relative="1" as="geometry"><mxPoint x="440" y="735.25" as="sourcePoint"/><mxPoint x="440" y="684.75" as="targetPoint"/></mxGeometry></mxCell><mxCell id="407" value="je" style="edgeLabel;html=1;align=center;verticalAlign=middle;resizable=0;points=[];fontColor=#5AA9E6;" parent="406" vertex="1" connectable="0"><mxGeometry x="0.6299" y="-2" relative="1" as="geometry"><mxPoint x="-2" y="19" as="offset"/></mxGeometry></mxCell><mxCell id="440" style="edgeStyle=orthogonalEdgeStyle;sketch=0;orthogonalLoop=1;jettySize=auto;html=1;entryX=1;entryY=0.5;entryDx=0;entryDy=0;fontSize=13;fontColor=#5AA9E6;startArrow=none;startFill=0;endArrow=block;endFill=0;strokeColor=#FF6392;fillColor=#FFE45E;" parent="1" source="408" target="95" edge="1"><mxGeometry relative="1" as="geometry"/></mxCell><mxCell id="408" value="Vedoucí" style="shape=table;startSize=30;container=1;collapsible=1;childLayout=tableLayout;fixedRows=1;rowLines=0;fontStyle=1;align=center;resizeLast=1;rounded=1;sketch=0;shadow=0;fillColor=#FFE45E;strokeColor=#FF6392;fontColor=#5AA9E6;arcSize=8;" parent="1" vertex="1"><mxGeometry x="590" y="70" width="180" height="60" as="geometry"/></mxCell><mxCell id="443" style="shape=partialRectangle;collapsible=0;dropTarget=0;pointerEvents=0;fillColor=none;top=0;left=0;bottom=1;right=0;points=[[0,0.5],[1,0.5]];portConstraint=eastwest;strokeColor=#FF6392;fontColor=#5AA9E6;" parent="408" vertex="1"><mxGeometry y="30" width="180" height="30" as="geometry"/></mxCell><mxCell id="444" value="" style="shape=partialRectangle;connectable=0;fillColor=none;top=0;left=0;bottom=0;right=0;fontStyle=1;overflow=hidden;strokeColor=#FF6392;fontColor=#5AA9E6;" parent="443" vertex="1"><mxGeometry width="30" height="30" as="geometry"><mxRectangle width="30" height="30" as="alternateBounds"/></mxGeometry></mxCell><mxCell id="445" value="Služebné auto" style="shape=partialRectangle;connectable=0;fillColor=none;top=0;left=0;bottom=0;right=0;align=left;spacingLeft=6;fontStyle=5;overflow=hidden;strokeColor=#FF6392;fontColor=#5AA9E6;" parent="443" vertex="1"><mxGeometry x="30" width="150" height="30" as="geometry"><mxRectangle width="150" height="30" as="alternateBounds"/></mxGeometry></mxCell><mxCell id="442" style="edgeStyle=orthogonalEdgeStyle;sketch=0;orthogonalLoop=1;jettySize=auto;html=1;entryX=1;entryY=0.5;entryDx=0;entryDy=0;fontSize=13;fontColor=#5AA9E6;startArrow=none;startFill=0;endArrow=block;endFill=0;strokeColor=#FF6392;fillColor=#FFE45E;" parent="1" source="424" target="95" edge="1"><mxGeometry relative="1" as="geometry"/></mxCell><mxCell id="424" value="Pracovník" style="shape=table;startSize=30;container=1;collapsible=1;childLayout=tableLayout;fixedRows=1;rowLines=0;fontStyle=1;align=center;resizeLast=1;rounded=1;sketch=0;shadow=0;fillColor=#FFE45E;strokeColor=#FF6392;fontColor=#5AA9E6;arcSize=8;" parent="1" vertex="1"><mxGeometry x="590" y="200" width="180" height="60" as="geometry"/></mxCell><mxCell id="425" value="" style="shape=partialRectangle;collapsible=0;dropTarget=0;pointerEvents=0;fillColor=none;top=0;left=0;bottom=1;right=0;points=[[0,0.5],[1,0.5]];portConstraint=eastwest;strokeColor=#FF6392;fontColor=#5AA9E6;" parent="424" vertex="1"><mxGeometry y="30" width="180" height="30" as="geometry"/></mxCell><mxCell id="426" value="" style="shape=partialRectangle;connectable=0;fillColor=none;top=0;left=0;bottom=0;right=0;fontStyle=1;overflow=hidden;strokeColor=#FF6392;fontColor=#5AA9E6;" parent="425" vertex="1"><mxGeometry width="30" height="30" as="geometry"><mxRectangle width="30" height="30" as="alternateBounds"/></mxGeometry></mxCell><mxCell id="427" value="Pracovní směna" style="shape=partialRectangle;connectable=0;fillColor=none;top=0;left=0;bottom=0;right=0;align=left;spacingLeft=6;fontStyle=5;overflow=hidden;strokeColor=#FF6392;fontColor=#5AA9E6;" parent="425" vertex="1"><mxGeometry x="30" width="150" height="30" as="geometry"><mxRectangle width="150" height="30" as="alternateBounds"/></mxGeometry></mxCell><mxCell id="446" value="&lt;&lt; weak &gt;&gt;&#10;Internetové bankovnictví" style="shape=table;startSize=30;container=1;collapsible=1;childLayout=tableLayout;fixedRows=1;rowLines=0;fontStyle=1;align=center;resizeLast=1;rounded=1;sketch=0;shadow=0;fillColor=#FFE45E;strokeColor=#FF6392;fontColor=#5AA9E6;" vertex="1" parent="1"><mxGeometry x="600" y="910" width="180" height="150" as="geometry"/></mxCell><mxCell id="447" value="" style="shape=partialRectangle;collapsible=0;dropTarget=0;pointerEvents=0;fillColor=none;top=0;left=0;bottom=1;right=0;points=[[0,0.5],[1,0.5]];portConstraint=eastwest;strokeColor=#FF6392;fontColor=#5AA9E6;" vertex="1" parent="446"><mxGeometry y="30" width="180" height="30" as="geometry"/></mxCell><mxCell id="448" value="D" style="shape=partialRectangle;connectable=0;fillColor=none;top=0;left=0;bottom=0;right=0;fontStyle=1;overflow=hidden;strokeColor=#FF6392;fontColor=#5AA9E6;" vertex="1" parent="447"><mxGeometry width="30" height="30" as="geometry"><mxRectangle width="30" height="30" as="alternateBounds"/></mxGeometry></mxCell><mxCell id="449" value="ID-PID" style="shape=partialRectangle;connectable=0;fillColor=none;top=0;left=0;bottom=0;right=0;align=left;spacingLeft=6;fontStyle=5;overflow=hidden;strokeColor=#FF6392;fontColor=#5AA9E6;" vertex="1" parent="447"><mxGeometry x="30" width="150" height="30" as="geometry"><mxRectangle width="150" height="30" as="alternateBounds"/></mxGeometry></mxCell><mxCell id="450" value="" style="shape=partialRectangle;collapsible=0;dropTarget=0;pointerEvents=0;fillColor=none;top=0;left=0;bottom=0;right=0;points=[[0,0.5],[1,0.5]];portConstraint=eastwest;strokeColor=#FF6392;fontColor=#5AA9E6;" vertex="1" parent="446"><mxGeometry y="60" width="180" height="30" as="geometry"/></mxCell><mxCell id="451" value="" style="shape=partialRectangle;connectable=0;fillColor=none;top=0;left=0;bottom=0;right=0;editable=1;overflow=hidden;strokeColor=#FF6392;fontColor=#5AA9E6;" vertex="1" parent="450"><mxGeometry width="30" height="30" as="geometry"><mxRectangle width="30" height="30" as="alternateBounds"/></mxGeometry></mxCell><mxCell id="452" value="Uživatelské jméno" style="shape=partialRectangle;connectable=0;fillColor=none;top=0;left=0;bottom=0;right=0;align=left;spacingLeft=6;overflow=hidden;strokeColor=#FF6392;fontColor=#5AA9E6;" vertex="1" parent="450"><mxGeometry x="30" width="150" height="30" as="geometry"><mxRectangle width="150" height="30" as="alternateBounds"/></mxGeometry></mxCell><mxCell id="453" value="" style="shape=partialRectangle;collapsible=0;dropTarget=0;pointerEvents=0;fillColor=none;top=0;left=0;bottom=0;right=0;points=[[0,0.5],[1,0.5]];portConstraint=eastwest;strokeColor=#FF6392;fontColor=#5AA9E6;" vertex="1" parent="446"><mxGeometry y="90" width="180" height="30" as="geometry"/></mxCell><mxCell id="454" value="" style="shape=partialRectangle;connectable=0;fillColor=none;top=0;left=0;bottom=0;right=0;editable=1;overflow=hidden;strokeColor=#FF6392;fontColor=#5AA9E6;" vertex="1" parent="453"><mxGeometry width="30" height="30" as="geometry"><mxRectangle width="30" height="30" as="alternateBounds"/></mxGeometry></mxCell><mxCell id="455" value="Heslo" style="shape=partialRectangle;connectable=0;fillColor=none;top=0;left=0;bottom=0;right=0;align=left;spacingLeft=6;overflow=hidden;strokeColor=#FF6392;fontColor=#5AA9E6;" vertex="1" parent="453"><mxGeometry x="30" width="150" height="30" as="geometry"><mxRectangle width="150" height="30" as="alternateBounds"/></mxGeometry></mxCell><mxCell id="456" style="shape=partialRectangle;collapsible=0;dropTarget=0;pointerEvents=0;fillColor=none;top=0;left=0;bottom=0;right=0;points=[[0,0.5],[1,0.5]];portConstraint=eastwest;strokeColor=#FF6392;fontColor=#5AA9E6;" vertex="1" parent="446"><mxGeometry y="120" width="180" height="30" as="geometry"/></mxCell><mxCell id="457" style="shape=partialRectangle;connectable=0;fillColor=none;top=0;left=0;bottom=0;right=0;editable=1;overflow=hidden;strokeColor=#FF6392;fontColor=#5AA9E6;" vertex="1" parent="456"><mxGeometry width="30" height="30" as="geometry"><mxRectangle width="30" height="30" as="alternateBounds"/></mxGeometry></mxCell><mxCell id="458" value="ID-klienta" style="shape=partialRectangle;connectable=0;fillColor=none;top=0;left=0;bottom=0;right=0;align=left;spacingLeft=6;overflow=hidden;strokeColor=#FF6392;fontColor=#5AA9E6;" vertex="1" parent="456"><mxGeometry x="30" width="150" height="30" as="geometry"><mxRectangle width="150" height="30" as="alternateBounds"/></mxGeometry></mxCell></root></mxGraphModel></diagram></mxfile>